# xmcd
#
# Track frame offsets:
#	150
#	20633
#	36471
#	58287
#	81255
#	103092
#	124678
#	156417
#	208986
#	228477
#	253838
#	282526
#
# Disc length: 4304 seconds
#
# Revision: 0
# Processed by: cddbd v1.5.2PL0 Copyright (c) Steve Scherf et al.
# Submitted via: EasyCDDAExtractor 16.0.3.1
#
DISCID=bd10ce0c
DTITLE=Johnny Winter - The Best Of Johnny Winter
DYEAR=2011
DGENRE=Blues
TTITLE0=Good Morning Little School Girl
TTITLE1=Johnny B Goode
TTITLE2=Rock And Roll, Hoochie Koo
TTITLE3=Mama Talk To Your Daughter
TTITLE4=Leland Mississippi Blues
TTITLE5=Roll With Me
TTITLE6=Highway 61 Revisited
TTITLE7=It's My Own Fault 
TTITLE8=Jumpin Jack Flash
TTITLE9=Black Cat Bone
TTITLE10=Bony Maronie
TTITLE11=Mean Town Blues
EXTD=
EXTT0=
EXTT1=
EXTT2=
EXTT3=
EXTT4=
EXTT5=
EXTT6=
EXTT7=
EXTT8=
EXTT9=
EXTT10=
EXTT11=
PLAYORDER=
